{
	"asset":{
		"generator":"Khronos glTF Blender I/O v4.0.44",
		"version":"2.0"
	},
	"scene":0,
	"scenes":[
		{
			"name":"Scene",
			"nodes":[
				0
			]
		}
	],
	"nodes":[
		{
			"mesh":0,
			"name":"Cylinder",
			"translation":[
				0.3236476480960846,
				0.9947001338005066,
				0.10923820734024048
			]
		}
	],
	"materials":[
		{
			"doubleSided":true,
			"name":"Material.001",
			"pbrMetallicRoughness":{
				"baseColorFactor":[
					0.0294633936136961,
					0.8013050556182861,
					0.4087311625480652,
					1
				],
				"metallicFactor":0.37383177876472473,
				"roughnessFactor":0.5
			}
		}
	],
	"meshes":[
		{
			"name":"Cylinder",
			"primitives":[
				{
					"attributes":{
						"POSITION":0,
						"NORMAL":1,
						"TEXCOORD_0":2
					},
					"indices":3,
					"material":0
				}
			]
		}
	],
	"accessors":[
		{
			"bufferView":0,
			"componentType":5126,
			"count":3130,
			"max":[
				1.1960289478302002,
				1.6126295328140259,
				1.2091550827026367
			],
			"min":[
				-1.224478840827942,
				-1,
				-1.2091548442840576
			],
			"type":"VEC3"
		},
		{
			"bufferView":1,
			"componentType":5126,
			"count":3130,
			"type":"VEC3"
		},
		{
			"bufferView":2,
			"componentType":5126,
			"count":3130,
			"type":"VEC2"
		},
		{
			"bufferView":3,
			"componentType":5123,
			"count":15048,
			"type":"SCALAR"
		}
	],
	"bufferViews":[
		{
			"buffer":0,
			"byteLength":37560,
			"byteOffset":0,
			"target":34962
		},
		{
			"buffer":0,
			"byteLength":37560,
			"byteOffset":37560,
			"target":34962
		},
		{
			"buffer":0,
			"byteLength":25040,
			"byteOffset":75120,
			"target":34962
		},
		{
			"buffer":0,
			"byteLength":30096,
			"byteOffset":100160,
			"target":34963
		}
	],
	"buffers":[
		{
			"byteLength":130256,
			"uri":"%20Dust%20Bin.bin"
		}
	]
}
